# MagicaVoxel @ Ephtracy

# group
o 

# material
mtllib level test.mtl
usemtl palette

# normals
vn -1 0 0
vn 1 0 0
vn 0 0 1
vn 0 0 -1
vn 0 -1 0
vn 0 1 0

# texcoords
vt 0.974609 0.5
vt 0.978516 0.5

# verts
v -2 0 2
v -2 0 -2
v -2 0.1 1.9
v -2 0.1 -1.9
v -2 0.1 -2
v -2 0.2 2
v -2 0.2 1.9
v -2 2.5 -1.9
v -2 2.5 -2
v -1 0.2 2
v -1 0.2 1.9
v -1 0.3 2
v -1 0.3 1.9
v -0.4 0.1 0.5
v -0.4 0.1 0.3
v -0.4 0.5 0.5
v -0.4 0.5 0.3
v 2.3 0.1 1.9
v 2.3 0.1 1.5
v 2.3 0.2 2
v 2.3 0.2 1.9
v 2.3 0.2 1.5
v 2.3 0.4 2
v 2.3 0.4 1.9
v 3.5 0.1 1.9
v 3.5 0.1 1.8
v 3.5 0.2 2
v 3.5 0.2 1.9
v 3.5 0.8 2
v 3.5 0.8 1.8
v 5.6 0.1 1.7
v 5.6 0.1 1.4
v 5.6 0.7 2
v 5.6 0.7 1.7
v 5.6 0.9 2
v 5.6 0.9 1.4
v 7.9 0.2 2
v 7.9 0.2 1.9
v 7.9 0.3 2
v 7.9 0.3 1.9
v 8 0.3 2
v 8 0.3 1.9
v 8 0.4 2
v 8 0.4 1.9
v -0.7 0.2 2
v -0.7 0.2 1.9
v -0.7 0.3 2
v -0.7 0.3 1.9
v 1.5 0.1 0.5
v 1.5 0.1 0.3
v 1.5 0.5 0.5
v 1.5 0.5 0.3
v 2.7 0.1 1.9
v 2.7 0.1 1.5
v 2.7 0.2 2
v 2.7 0.2 1.9
v 2.7 0.2 1.5
v 2.7 0.4 2
v 2.7 0.4 1.9
v 4.1 0.1 1.9
v 4.1 0.1 1.8
v 4.1 0.2 2
v 4.1 0.2 1.9
v 4.1 0.8 2
v 4.1 0.8 1.8
v 5.9 0.1 1.7
v 5.9 0.1 1.4
v 5.9 0.7 2
v 5.9 0.7 1.7
v 5.9 0.9 2
v 5.9 0.9 1.4
v 8.4 0.3 2
v 8.4 0.3 1.9
v 8.4 0.4 2
v 8.4 0.4 1.9
v 10.7 0.2 2
v 10.7 0.2 1.9
v 10.7 0.3 2
v 10.7 0.3 1.9
v 12.2 0.1 2
v 12.2 0.1 1.9
v 12.2 0.2 2
v 12.2 0.2 1.9
v 15.2 0 2
v 15.2 0 -2
v 15.2 0.1 2
v 15.2 0.1 -1.9
v 15.2 2.5 -1.9
v 15.2 2.5 -2
v -2 0 2
v -2 0.2 2
v -1 0.2 2
v -1 0.3 2
v -0.7 0.2 2
v -0.7 0.3 2
v 2.3 0.2 2
v 2.3 0.4 2
v 2.7 0.2 2
v 2.7 0.4 2
v 3.5 0.2 2
v 3.5 0.8 2
v 4.1 0.2 2
v 4.1 0.8 2
v 5.6 0.7 2
v 5.6 0.9 2
v 5.9 0.7 2
v 5.9 0.9 2
v 7.9 0.2 2
v 7.9 0.3 2
v 8 0.3 2
v 8 0.4 2
v 8.4 0.3 2
v 8.4 0.4 2
v 10.7 0.2 2
v 10.7 0.3 2
v 12.2 0.1 2
v 12.2 0.2 2
v 15.2 0 2
v 15.2 0.1 2
v 5.6 0.1 1.7
v 5.6 0.7 1.7
v 5.9 0.1 1.7
v 5.9 0.7 1.7
v -0.4 0.1 0.5
v -0.4 0.5 0.5
v 1.5 0.1 0.5
v 1.5 0.5 0.5
v -2 0.1 -1.9
v -2 2.5 -1.9
v 8.3 0.1 -1.9
v 8.3 2.5 -1.9
v 15.2 0.1 -1.9
v 15.2 2.5 -1.9
v -2 0.1 1.9
v -2 0.2 1.9
v -1 0.2 1.9
v -1 0.3 1.9
v -0.7 0.2 1.9
v -0.7 0.3 1.9
v 2.3 0.1 1.9
v 2.3 0.2 1.9
v 2.3 0.4 1.9
v 2.7 0.1 1.9
v 2.7 0.2 1.9
v 2.7 0.4 1.9
v 3.5 0.1 1.9
v 3.5 0.2 1.9
v 4.1 0.1 1.9
v 4.1 0.2 1.9
v 7.9 0.2 1.9
v 7.9 0.3 1.9
v 8 0.3 1.9
v 8 0.4 1.9
v 8.4 0.3 1.9
v 8.4 0.4 1.9
v 10.7 0.2 1.9
v 10.7 0.3 1.9
v 12.2 0.1 1.9
v 12.2 0.2 1.9
v 3.5 0.1 1.8
v 3.5 0.8 1.8
v 4.1 0.1 1.8
v 4.1 0.8 1.8
v 2.3 0.1 1.5
v 2.3 0.2 1.5
v 2.7 0.1 1.5
v 2.7 0.2 1.5
v 5.6 0.1 1.4
v 5.6 0.9 1.4
v 5.7 0.1 1.4
v 5.7 0.8 1.4
v 5.8 0.1 1.4
v 5.8 0.8 1.4
v 5.9 0.1 1.4
v 5.9 0.9 1.4
v -0.4 0.1 0.3
v -0.4 0.5 0.3
v 1.5 0.1 0.3
v 1.5 0.5 0.3
v -2 0 -2
v -2 0.1 -2
v -2 2.5 -2
v 8.3 0.1 -2
v 8.3 2.5 -2
v 15.2 0 -2
v 15.2 2.5 -2
v -2 0 2
v 15.2 0 2
v -2 0 -2
v 15.2 0 -2
v 5.6 0.7 2
v 5.9 0.7 2
v 5.6 0.7 1.7
v 5.9 0.7 1.7
v 12.2 0.1 2
v 15.2 0.1 2
v -2 0.1 1.9
v 2.3 0.1 1.9
v 2.7 0.1 1.9
v 3.5 0.1 1.9
v 4.1 0.1 1.9
v 12.2 0.1 1.9
v 3.5 0.1 1.8
v 4.1 0.1 1.8
v 5.6 0.1 1.7
v 5.9 0.1 1.7
v 2.3 0.1 1.5
v 2.7 0.1 1.5
v 5.6 0.1 1.4
v 5.7 0.1 1.4
v 5.8 0.1 1.4
v 5.9 0.1 1.4
v -0.4 0.1 0.5
v 1.5 0.1 0.5
v -0.4 0.1 0.3
v 1.5 0.1 0.3
v -2 0.1 -1.9
v 8.3 0.1 -1.9
v 15.2 0.1 -1.9
v -2 0.2 2
v -1 0.2 2
v -0.7 0.2 2
v 2.3 0.2 2
v 2.7 0.2 2
v 3.5 0.2 2
v 4.1 0.2 2
v 7.9 0.2 2
v 10.7 0.2 2
v 12.2 0.2 2
v -2 0.2 1.9
v -1 0.2 1.9
v -0.7 0.2 1.9
v 2.3 0.2 1.9
v 2.7 0.2 1.9
v 3.5 0.2 1.9
v 4.1 0.2 1.9
v 7.9 0.2 1.9
v 10.7 0.2 1.9
v 12.2 0.2 1.9
v 2.3 0.2 1.5
v 2.7 0.2 1.5
v -1 0.3 2
v -0.7 0.3 2
v 7.9 0.3 2
v 8 0.3 2
v 8.4 0.3 2
v 10.7 0.3 2
v -1 0.3 1.9
v -0.7 0.3 1.9
v 7.9 0.3 1.9
v 8 0.3 1.9
v 8.4 0.3 1.9
v 10.7 0.3 1.9
v 2.3 0.4 2
v 2.7 0.4 2
v 8 0.4 2
v 8.4 0.4 2
v 2.3 0.4 1.9
v 2.7 0.4 1.9
v 8 0.4 1.9
v 8.4 0.4 1.9
v -0.4 0.5 0.5
v 1.5 0.5 0.5
v -0.4 0.5 0.3
v 1.5 0.5 0.3
v 3.5 0.8 2
v 4.1 0.8 2
v 3.5 0.8 1.8
v 4.1 0.8 1.8
v 5.6 0.9 2
v 5.9 0.9 2
v 5.6 0.9 1.4
v 5.9 0.9 1.4
v -2 2.5 -1.9
v 8.3 2.5 -1.9
v 15.2 2.5 -1.9
v -2 2.5 -2
v 8.3 2.5 -2
v 15.2 2.5 -2

# faces
f 3/2/1 2/2/1 1/2/1
f 4/2/1 2/2/1 3/2/1
f 5/2/1 2/2/1 4/2/1
f 6/2/1 3/2/1 1/2/1
f 7/2/1 3/2/1 6/2/1
f 8/1/1 5/1/1 4/1/1
f 9/1/1 5/1/1 8/1/1
f 12/2/1 11/2/1 10/2/1
f 13/2/1 11/2/1 12/2/1
f 16/2/1 15/2/1 14/2/1
f 17/2/1 15/2/1 16/2/1
f 21/2/1 19/2/1 18/2/1
f 22/2/1 19/2/1 21/2/1
f 23/2/1 21/2/1 20/2/1
f 24/2/1 21/2/1 23/2/1
f 28/2/1 26/2/1 25/2/1
f 29/2/1 28/2/1 27/2/1
f 30/2/1 26/2/1 28/2/1
f 30/2/1 28/2/1 29/2/1
f 34/2/1 32/2/1 31/2/1
f 35/2/1 34/2/1 33/2/1
f 36/2/1 32/2/1 34/2/1
f 36/2/1 34/2/1 35/2/1
f 39/2/1 38/2/1 37/2/1
f 40/2/1 38/2/1 39/2/1
f 43/2/1 42/2/1 41/2/1
f 44/2/1 42/2/1 43/2/1
f 45/2/2 46/2/2 47/2/2
f 47/2/2 46/2/2 48/2/2
f 49/2/2 50/2/2 51/2/2
f 51/2/2 50/2/2 52/2/2
f 53/2/2 54/2/2 56/2/2
f 56/2/2 54/2/2 57/2/2
f 55/2/2 56/2/2 58/2/2
f 58/2/2 56/2/2 59/2/2
f 60/2/2 61/2/2 63/2/2
f 62/2/2 63/2/2 64/2/2
f 63/2/2 61/2/2 65/2/2
f 64/2/2 63/2/2 65/2/2
f 66/2/2 67/2/2 69/2/2
f 68/2/2 69/2/2 70/2/2
f 69/2/2 67/2/2 71/2/2
f 70/2/2 69/2/2 71/2/2
f 72/2/2 73/2/2 74/2/2
f 74/2/2 73/2/2 75/2/2
f 76/2/2 77/2/2 78/2/2
f 78/2/2 77/2/2 79/2/2
f 80/2/2 81/2/2 82/2/2
f 82/2/2 81/2/2 83/2/2
f 84/2/2 85/2/2 86/2/2
f 86/2/2 85/2/2 87/2/2
f 87/2/2 85/2/2 88/2/2
f 88/2/2 85/2/2 89/2/2
f 92/2/3 91/2/3 90/2/3
f 94/2/3 92/2/3 90/2/3
f 94/2/3 93/2/3 92/2/3
f 95/2/3 93/2/3 94/2/3
f 96/2/3 94/2/3 90/2/3
f 98/2/3 96/2/3 90/2/3
f 98/2/3 97/2/3 96/2/3
f 99/2/3 97/2/3 98/2/3
f 100/2/3 98/2/3 90/2/3
f 102/2/3 100/2/3 90/2/3
f 102/2/3 101/2/3 100/2/3
f 103/2/3 101/2/3 102/2/3
f 106/2/3 105/2/3 104/2/3
f 107/2/3 105/2/3 106/2/3
f 108/2/3 102/2/3 90/2/3
f 110/2/3 109/2/3 108/2/3
f 112/2/3 110/2/3 108/2/3
f 112/2/3 111/2/3 110/2/3
f 113/2/3 111/2/3 112/2/3
f 114/2/3 108/2/3 90/2/3
f 114/2/3 112/2/3 108/2/3
f 115/2/3 112/2/3 114/2/3
f 116/2/3 114/2/3 90/2/3
f 117/2/3 114/2/3 116/2/3
f 118/2/3 116/2/3 90/2/3
f 119/2/3 116/2/3 118/2/3
f 122/2/3 121/2/3 120/2/3
f 123/2/3 121/2/3 122/2/3
f 126/2/3 125/2/3 124/2/3
f 127/2/3 125/2/3 126/2/3
f 130/1/3 129/1/3 128/1/3
f 131/1/3 129/1/3 130/1/3
f 132/2/3 131/2/3 130/2/3
f 133/2/3 131/2/3 132/2/3
f 134/2/4 135/2/4 136/2/4
f 134/2/4 136/2/4 138/2/4
f 136/2/4 137/2/4 138/2/4
f 138/2/4 137/2/4 139/2/4
f 134/2/4 138/2/4 140/2/4
f 140/2/4 138/2/4 141/2/4
f 141/2/4 142/2/4 144/2/4
f 144/2/4 142/2/4 145/2/4
f 143/2/4 144/2/4 146/2/4
f 146/2/4 144/2/4 147/2/4
f 148/2/4 149/2/4 150/2/4
f 150/2/4 151/2/4 152/2/4
f 150/2/4 152/2/4 154/2/4
f 152/2/4 153/2/4 154/2/4
f 154/2/4 153/2/4 155/2/4
f 148/2/4 150/2/4 156/2/4
f 150/2/4 154/2/4 156/2/4
f 156/2/4 154/2/4 157/2/4
f 148/2/4 156/2/4 158/2/4
f 158/2/4 156/2/4 159/2/4
f 160/2/4 161/2/4 162/2/4
f 162/2/4 161/2/4 163/2/4
f 164/2/4 165/2/4 166/2/4
f 166/2/4 165/2/4 167/2/4
f 168/2/4 169/2/4 170/2/4
f 170/2/4 169/2/4 171/2/4
f 170/1/4 171/1/4 172/1/4
f 171/2/4 169/2/4 173/2/4
f 172/1/4 171/1/4 173/1/4
f 172/2/4 173/2/4 174/2/4
f 173/2/4 169/2/4 175/2/4
f 174/2/4 173/2/4 175/2/4
f 176/2/4 177/2/4 178/2/4
f 178/2/4 177/2/4 179/2/4
f 180/2/4 181/2/4 183/2/4
f 181/1/4 182/1/4 183/1/4
f 183/1/4 182/1/4 184/1/4
f 180/2/4 183/2/4 185/2/4
f 183/2/4 184/2/4 185/2/4
f 185/2/4 184/2/4 186/2/4
f 189/2/5 188/2/5 187/2/5
f 190/2/5 188/2/5 189/2/5
f 193/2/5 192/2/5 191/2/5
f 194/2/5 192/2/5 193/2/5
f 195/2/6 196/2/6 202/2/6
f 199/2/6 200/2/6 203/2/6
f 201/2/6 202/2/6 204/2/6
f 204/2/6 202/2/6 205/2/6
f 203/2/6 204/2/6 205/2/6
f 205/2/6 202/2/6 206/2/6
f 197/2/6 198/2/6 207/2/6
f 199/2/6 203/2/6 208/2/6
f 203/2/6 205/2/6 208/2/6
f 208/2/6 205/2/6 209/2/6
f 207/2/6 208/2/6 209/2/6
f 206/2/6 202/2/6 212/2/6
f 197/2/6 207/2/6 213/2/6
f 211/2/6 212/2/6 213/2/6
f 210/2/6 211/2/6 213/2/6
f 207/2/6 209/2/6 213/2/6
f 209/2/6 210/2/6 213/2/6
f 213/2/6 212/2/6 214/2/6
f 197/2/6 213/2/6 215/2/6
f 214/2/6 212/2/6 216/2/6
f 197/2/6 215/2/6 217/2/6
f 215/2/6 216/2/6 217/2/6
f 212/2/6 202/2/6 218/2/6
f 217/2/6 216/2/6 218/2/6
f 216/2/6 212/2/6 218/2/6
f 202/2/6 196/2/6 219/2/6
f 218/2/6 202/2/6 219/2/6
f 220/2/6 221/2/6 230/2/6
f 230/2/6 221/2/6 231/2/6
f 222/2/6 223/2/6 232/2/6
f 232/2/6 223/2/6 233/2/6
f 224/2/6 225/2/6 234/2/6
f 234/2/6 225/2/6 235/2/6
f 226/2/6 227/2/6 236/2/6
f 236/2/6 227/2/6 237/2/6
f 228/2/6 229/2/6 238/2/6
f 238/2/6 229/2/6 239/2/6
f 233/2/6 234/2/6 240/2/6
f 240/2/6 234/2/6 241/2/6
f 242/2/6 243/2/6 248/2/6
f 248/2/6 243/2/6 249/2/6
f 244/2/6 245/2/6 250/2/6
f 250/2/6 245/2/6 251/2/6
f 246/2/6 247/2/6 252/2/6
f 252/2/6 247/2/6 253/2/6
f 254/2/6 255/2/6 258/2/6
f 258/2/6 255/2/6 259/2/6
f 256/2/6 257/2/6 260/2/6
f 260/2/6 257/2/6 261/2/6
f 262/2/6 263/2/6 264/2/6
f 264/2/6 263/2/6 265/2/6
f 266/2/6 267/2/6 268/2/6
f 268/2/6 267/2/6 269/2/6
f 270/2/6 271/2/6 272/2/6
f 272/2/6 271/2/6 273/2/6
f 274/1/6 275/1/6 277/1/6
f 275/2/6 276/2/6 278/2/6
f 277/1/6 275/1/6 278/1/6
f 278/2/6 276/2/6 279/2/6
